<svg xmlns="http://www.w3.org/2000/svg" width="317" height="317" xmlns:v="https://vecta.io/nano"><circle cx="158.5" cy="158.5" r="158" fill="none" stroke="#ededed"/><g fill="#e53617"><path d="M158.5 306.5c-10.042 0-20.077-1.012-29.828-3.007a147.25 147.25 0 0 1-27.78-8.623c-8.77-3.709-17.228-8.3-25.14-13.645-7.837-5.295-15.207-11.375-21.904-18.072s-12.778-14.067-18.072-21.904c-5.345-7.912-9.936-16.37-13.645-25.14a147.25 147.25 0 0 1-8.623-27.78c-1.995-9.75-3.007-19.786-3.007-29.828 0-15.224 2.302-30.235 6.843-44.615a147.33 147.33 0 0 1 19.132-39.157c8.189-11.905 18.055-22.539 29.323-31.604 11.254-9.054 23.714-16.387 37.04-21.8l161.976 240.139a149.11 149.11 0 0 1-21.845 18.581 148.07 148.07 0 0 1-25.567 14.272c-9.107 3.955-18.652 6.994-28.369 9.032A149.04 149.04 0 0 1 158.5 306.5z"/><path d="M102.651 21.94c-13.14 5.38-25.429 12.635-36.54 21.574-11.23 9.035-21.063 19.633-29.225 31.498-8.273 12.027-14.688 25.157-19.067 39.024C13.295 128.367 11 143.327 11 158.5a148.6 148.6 0 0 0 2.997 29.727c1.938 9.47 4.829 18.785 8.594 27.686 3.697 8.74 8.272 17.169 13.599 25.055 5.277 7.811 11.337 15.155 18.012 21.83a148.57 148.57 0 0 0 21.83 18.012c7.885 5.327 16.315 9.903 25.055 13.599a146.75 146.75 0 0 0 27.686 8.594C138.49 304.992 148.492 306 158.5 306a148.54 148.54 0 0 0 30.43-3.142 146.73 146.73 0 0 0 28.272-9.001 147.57 147.57 0 0 0 25.481-14.223 148.61 148.61 0 0 0 21.489-18.228L102.651 21.94m.375-1.232l162.429 240.811C238.442 289.557 200.508 307 158.5 307 76.486 307 10 240.514 10 158.5c0-62.402 38.493-115.815 93.026-137.792z" fill="#707070"/></g></svg>