<svg xmlns="http://www.w3.org/2000/svg" width="216.576" height="588.22" xmlns:v="https://vecta.io/nano"><circle cx="47.795" cy="47.795" r="47.795" transform="matrix(.921 .391 -.391 .921 128.585 0)" fill="#175fe5"/><g transform="matrix(.766044 -.642788 .642788 .766044 32.927 543.024)" fill="#fff" stroke="#707070"><rect width="59" height="59" rx="6" stroke="none"/><rect x=".5" y=".5" width="58" height="58" rx="5.5" fill="none"/></g><path d="M51 10.057L8.628 84h84.744L51 10.057m0-5c1.689 0 3.378.838 4.338 2.514L97.71 81.514C99.62 84.847 97.214 89 93.372 89H8.628c-3.842 0-6.248-4.153-4.338-7.486L46.662 7.571c.96-1.676 2.649-2.514 4.338-2.514z" fill="#ff4d00" transform="matrix(.485 -.875 .875 .485 0 468.46)"/></svg>